<?xml version="1.0" encoding="UTF-8" standalone="no"?>
<!-- Created with Inkscape (http://www.inkscape.org/) -->

<svg
   width="512mm"
   height="512mm"
   viewBox="0 0 512 512"
   version="1.1"
   id="svg5"
   inkscape:version="1.2.2 (b0a8486541, 2022-12-01)"
   sodipodi:docname="din.svg"
   xmlns:inkscape="http://www.inkscape.org/namespaces/inkscape"
   xmlns:sodipodi="http://sodipodi.sourceforge.net/DTD/sodipodi-0.dtd"
   xmlns="http://www.w3.org/2000/svg"
   xmlns:svg="http://www.w3.org/2000/svg">
  <sodipodi:namedview
     id="namedview7"
     pagecolor="#ffffff"
     bordercolor="#000000"
     borderopacity="0.25"
     inkscape:showpageshadow="2"
     inkscape:pageopacity="0.0"
     inkscape:pagecheckerboard="0"
     inkscape:deskcolor="#d1d1d1"
     inkscape:document-units="mm"
     showgrid="false"
     inkscape:zoom="0.19677663"
     inkscape:cx="866.4647"
     inkscape:cy="1156.1332"
     inkscape:window-width="1920"
     inkscape:window-height="1014"
     inkscape:window-x="0"
     inkscape:window-y="0"
     inkscape:window-maximized="1"
     inkscape:current-layer="text1051" />
  <defs
     id="defs2">
    <rect
       x="69.639389"
       y="131.02303"
       width="183.41432"
       height="127.33504"
       id="rect1053" />
  </defs>
  <g
     inkscape:label="Layer 1"
     inkscape:groupmode="layer"
     id="layer1">
    <g
       aria-label="دين"
       transform="matrix(22.957482,0,0,22.957482,-1538.0509,-2972.8768)"
       id="text1051"
       style="white-space:pre;shape-inside:url(#rect1053);display:inline">
      <path
         d="m 82.490676,142.74594 -0.024,-0.264 q 0.3,-0.156 0.684,-0.384 0.396,-0.228 0.804,-0.504 0.408,-0.276 0.744,-0.552 0.348,-0.276 0.564,-0.528 0.216,-0.252 0.216,-0.444 0,-0.276 -0.372,-0.72 -0.372,-0.456 -1.284,-0.876 0.048,-0.156 0.168,-0.432 0.132,-0.276 0.288,-0.588 0.156,-0.324 0.3,-0.6 0.156,-0.276 0.264,-0.42 h 0.132 q 0.336,0.204 0.636,0.528 0.312,0.324 0.504,0.768 0.204,0.444 0.204,1.02 0,0.444 -0.12,0.948 -0.12,0.504 -0.348,0.984 -0.216,0.468 -0.504,0.828 -0.276,0.36 -0.6,0.528 -0.624,0.312 -2.256,0.708 z"
         style="font-family:'Noto Nastaliq Urdu';-inkscape-font-specification:'Noto Nastaliq Urdu'"
         id="path3556" />
      <path
         d="m 78.626678,137.92195 q -0.096,0 -0.216,-0.108 -0.132,-0.108 -0.132,-0.36 0,-0.372 0.24,-0.588 0.228,-0.216 0.504,-0.216 1.548,0 1.932,-1.392 l 0.252,0.036 q -0.288,2.628 -2.58,2.628 z"
         style="font-family:'Noto Nastaliq Urdu';-inkscape-font-specification:'Noto Nastaliq Urdu'"
         id="path3558" />
      <path
         d="m 78.506672,145.79395 q -0.264,-0.264 -0.504,-0.492 -0.252,-0.216 -0.492,-0.408 v -0.108 q 0.108,-0.156 0.324,-0.408 0.204,-0.24 0.42,-0.468 0.204,-0.216 0.3,-0.264 h 0.108 q 0.3,0.18 0.504,0.336 0.204,0.156 0.312,0.324 0.216,-0.264 0.48,-0.552 0.264,-0.276 0.372,-0.336 h 0.096 q 0.48,0.3 0.708,0.528 0.24,0.24 0.24,0.48 0,0.456 -0.96,1.14 h -0.108 q -0.408,-0.408 -0.768,-0.696 -0.168,0.384 -0.924,0.924 z"
         style="font-family:'Noto Nastaliq Urdu';-inkscape-font-specification:'Noto Nastaliq Urdu'"
         id="path3560" />
      <path
         d="m 72.998672,146.03394 q -0.924,0 -1.608,-0.384 -0.672,-0.384 -1.044,-1.08 -0.372,-0.696 -0.372,-1.632 0,-0.996 0.228,-2.124 0.228,-1.14 0.912,-2.568 l 0.336,0.132 q -0.672,1.656 -0.672,2.808 0,0.792 0.24,1.32 0.24,0.528 0.636,0.828 0.408,0.3 0.912,0.42 0.504,0.132 1.02,0.132 1.308,0 2.292,-0.648 0.996,-0.648 1.524,-1.848 0.42,-0.96 0.552,-2.088 0.132,-1.128 0.132,-2.676 l 0.192,-0.06 q 0.42,0.072 0.756,0.072 0.156,0 0.252,0.132 0.096,0.132 0.096,0.336 0,0.408 -0.252,0.612 -0.24,0.192 -0.492,0.192 h -0.06 q -0.036,1.44 -0.396,2.808 -0.348,1.356 -0.972,2.472 -0.612,1.128 -1.464,1.824 -0.624,0.504 -1.308,0.756 -0.672,0.264 -1.44,0.264 z"
         style="font-family:'Noto Nastaliq Urdu';-inkscape-font-specification:'Noto Nastaliq Urdu'"
         id="path3562" />
      <path
         d="m 74.342671,140.42995 q -0.252,-0.264 -0.504,-0.48 -0.252,-0.228 -0.492,-0.42 v -0.108 q 0.108,-0.156 0.324,-0.396 0.204,-0.252 0.42,-0.468 0.204,-0.228 0.3,-0.288 h 0.108 q 0.552,0.348 0.744,0.588 0.192,0.228 0.192,0.432 0,0.432 -0.996,1.14 z"
         style="font-family:'Noto Nastaliq Urdu';-inkscape-font-specification:'Noto Nastaliq Urdu'"
         id="path3564" />
    </g>
  </g>
</svg>
