<?xml version="1.0" encoding="UTF-8" standalone="no"?>
<svg
   height="512mm"
   viewBox="0 0 512 512"
   width="512mm"
   version="1.1"
   id="svg28174"
   sodipodi:docname="din.svg"
   inkscape:version="1.2.2 (b0a8486541, 2022-12-01)"
   xmlns:inkscape="http://www.inkscape.org/namespaces/inkscape"
   xmlns:sodipodi="http://sodipodi.sourceforge.net/DTD/sodipodi-0.dtd"
   xmlns="http://www.w3.org/2000/svg"
   xmlns:svg="http://www.w3.org/2000/svg">
  <defs
     id="defs28178" />
  <sodipodi:namedview
     id="namedview28176"
     pagecolor="#ffffff"
     bordercolor="#000000"
     borderopacity="0.25"
     inkscape:showpageshadow="2"
     inkscape:pageopacity="0.0"
     inkscape:pagecheckerboard="0"
     inkscape:deskcolor="#d1d1d1"
     inkscape:document-units="mm"
     showgrid="false"
     inkscape:zoom="0.4041097"
     inkscape:cx="968.79634"
     inkscape:cy="971.27092"
     inkscape:window-width="1920"
     inkscape:window-height="1014"
     inkscape:window-x="0"
     inkscape:window-y="0"
     inkscape:window-maximized="1"
     inkscape:current-layer="g28172" />
  <g
     transform="matrix(22.957482 0 0 22.957482 -1538.0509 -2972.8768)"
     id="g28172">
    <path
       d="m82.490676 142.74594-.024-.264q.3-.156.684-.384.396-.228.804-.504.408-.276.744-.552.348-.276.564-.528.216-.252.216-.444 0-.276-.372-.72-.372-.456-1.284-.876.048-.156.168-.432.132-.276.288-.588.156-.324.3-.6.156-.276.264-.42h.132q.336.204.636.528.312.324.504.768.204.444.204 1.02 0 .444-.12.948-.12.504-.348.984-.216.468-.504.828-.276.36-.6.528-.624.312-2.256.708z"
       id="path28162" />
    <path
       d="m78.626678 137.92195q-.096 0-.216-.108-.132-.108-.132-.36 0-.372.24-.588.228-.216.504-.216 1.548 0 1.932-1.392l.252.036q-.288 2.628-2.58 2.628z"
       id="path28164" />
    <path
       d="m78.506672 145.79395q-.264-.264-.504-.492-.252-.216-.492-.408v-.108q.108-.156.324-.408.204-.24.42-.468.204-.216.3-.264h.108q.3.18.504.336.204.156.312.324.216-.264.48-.552.264-.276.372-.336h.096q.48.3.708.528.24.24.24.48 0 .456-.96 1.14h-.108q-.408-.408-.768-.696-.168.384-.924.924z"
       id="path28166" />
    <path
       d="m72.998672 146.03394q-.924 0-1.608-.384-.672-.384-1.044-1.08-.372-.696-.372-1.632 0-.996.228-2.124.228-1.14.912-2.568l.336.132q-.672 1.656-.672 2.808 0 .792.24 1.32.24.528.636.828.408.3.912.42.504.132 1.02.132 1.308 0 2.292-.648.996-.648 1.524-1.848.42-.96.552-2.088.132-1.128.132-2.676l.192-.06q.42.072.756.072.156 0 .252.132.096.132.096.336 0 .408-.252.612-.24.192-.492.192h-.06q-.036 1.44-.396 2.808-.348 1.356-.972 2.472-.612 1.128-1.464 1.824-.624.504-1.308.756-.672.264-1.44.264z"
       id="path28168" />
    <path
       d="m74.342671 140.42995q-.252-.264-.504-.48-.252-.228-.492-.42v-.108q.108-.156.324-.396.204-.252.42-.468.204-.228.3-.288h.108q.552.348.744.588.192.228.192.432 0 .432-.996 1.14z"
       id="path28170" />
  </g>
</svg>
