<?xml version="1.0" encoding="UTF-8" standalone="no"?>
<!-- Created with Inkscape (http://www.inkscape.org/) -->

<svg
   width="512mm"
   height="512mm"
   viewBox="0 0 512 512"
   version="1.1"
   id="svg6517"
   xml:space="preserve"
   sodipodi:docname="needle.svg"
   inkscape:version="1.2.2 (b0a8486541, 2022-12-01)"
   xmlns:inkscape="http://www.inkscape.org/namespaces/inkscape"
   xmlns:sodipodi="http://sodipodi.sourceforge.net/DTD/sodipodi-0.dtd"
   xmlns="http://www.w3.org/2000/svg"
   xmlns:svg="http://www.w3.org/2000/svg"><sodipodi:namedview
     id="namedview6519"
     pagecolor="#ffffff"
     bordercolor="#000000"
     borderopacity="0.25"
     inkscape:showpageshadow="2"
     inkscape:pageopacity="0.0"
     inkscape:pagecheckerboard="false"
     inkscape:deskcolor="#d1d1d1"
     inkscape:document-units="mm"
     showgrid="false"
     inkscape:zoom="0.42135922"
     inkscape:cx="886.41706"
     inkscape:cy="779.61982"
     inkscape:window-width="1920"
     inkscape:window-height="1014"
     inkscape:window-x="0"
     inkscape:window-y="0"
     inkscape:window-maximized="1"
     inkscape:current-layer="layer1" /><defs
     id="defs6514" /><g
     inkscape:label="Layer 1"
     inkscape:groupmode="layer"
     id="layer1"><path
       id="rect450"
       style="fill:#000000;stroke:#000000;stroke-width:0.190671;stroke-opacity:1"
       d="m 255.99988,126.80466 c -6.72809,43.06498 -13.45623,86.13023 -20.1843,129.19522 18.09043,145.34707 22.08843,117.00719 40.3686,0 -6.72809,-43.065 -13.45623,-86.13023 -20.1843,-129.19522 z m -0.0501,112.31201 c 3.98477,0.86045 8.11473,2.10257 11.85303,3.72484 1.54474,3.83304 -4.53368,3.03346 -6.75515,4.47518 -2.94901,1.36382 -5.95326,1.75492 -8.90695,0.16019 -2.18535,-1.48278 -7.50824,-0.6589 -7.52357,-3.73724 1.63388,-2.75726 6.08142,-2.45643 8.92452,-3.87004 z m 0.0718,2.15801 c -1.06305,-0.0124 -2.12641,0.21859 -3.18947,0.86093 -1.92448,0.60098 -3.84881,1.20201 -5.77329,1.80299 4.26056,0.82981 8.52108,4.16876 12.78165,1.80299 3.09541,-0.96574 8.25294,-1.93125 2.26911,-2.89698 -2.02946,-0.63436 -4.05853,-1.54621 -6.088,-1.56993 z m 12.03389,5.21932 c -0.22808,2.99604 -4.35831,3.46423 0,3.77961 0.54642,3.63317 0.001,7.31229 -4.41937,7.3949 -3.69598,1.04025 -7.47145,3.23352 -11.19414,1.06505 -2.65531,-1.48091 -8.37222,-0.77903 -7.82485,-4.97437 -2.46597,-4.72166 5.1465,-3.15105 0.64389,-5.17436 -2.66134,-3.57081 3.87608,-0.55668 5.86372,-0.0579 1.92842,0.43322 3.79138,1.56974 5.79758,1.44642 3.71103,-1.15969 7.42215,-2.31968 11.13317,-3.47937 z m -18.68154,3.37344 c -1.94624,3.01332 6.89141,1.439 0.1018,0.0315 z m 13.45861,0.10903 c -1.53273,0.0148 -4.12501,3.23681 0.76326,1.16376 l 0.1018,-0.0315 c -0.0257,-0.84048 -0.39586,-1.13675 -0.86506,-1.13223 z m -8.25015,1.51877 c -3.09281,3.25679 8.37107,0.58596 2.52285,0.31213 -0.84548,0.47946 -1.69143,-0.13393 -2.52285,-0.31213 z m -17.43666,8.76174 c 6.4333,1.93323 12.86682,3.86642 19.30012,5.79965 5.48761,-0.6648 16.09465,-7.28242 18.11362,-3.91397 -16.65569,135.57642 -20.62716,105.56139 -37.41374,-1.88568 z"
       sodipodi:nodetypes="cccccccccccsccccsccccccccccccsccsccccccc" /></g></svg>
